# Blender 5.1.0
# www.blender.org
mtllib test_barrel_001.mtl
o Cylinder
v 0.000000 0.001640 -0.834717
v 0.000000 2.544446 -0.834717
v 0.417358 0.001640 -0.722886
v 0.417358 2.544446 -0.722886
v 0.722886 0.001640 -0.417358
v 0.722886 2.544446 -0.417358
v 0.834717 0.001640 -0.000000
v 0.834717 2.544446 -0.000000
v 0.722886 0.001640 0.417358
v 0.722886 2.544446 0.417358
v 0.417358 0.001640 0.722886
v 0.417358 2.544446 0.722886
v 0.000000 0.001640 0.834717
v 0.000000 2.544446 0.834717
v -0.417358 0.001640 0.722886
v -0.417358 2.544446 0.722886
v -0.722886 0.001640 0.417358
v -0.722886 2.544446 0.417358
v -0.834717 0.001640 -0.000000
v -0.834717 2.544446 -0.000000
v -0.722886 0.001640 -0.417358
v -0.722886 2.544446 -0.417358
v -0.417358 0.001640 -0.722886
v -0.417358 2.544446 -0.722886
v -0.918922 2.057728 -0.530540
v -0.530540 2.057728 -0.918922
v 0.530540 2.057728 -0.918922
v 0.918922 2.057728 -0.530540
v 0.530540 2.057728 0.918922
v 0.000000 2.057728 1.061080
v -0.530540 2.057728 0.918922
v -0.918922 2.057728 0.530540
v -1.061079 2.057728 -0.000000
v 0.000000 2.057728 -1.061080
v 1.061080 2.057728 -0.000000
v 0.918922 2.057728 0.530540
v 0.000000 0.476186 -1.062984
v 0.531492 0.476186 -0.920571
v 0.920571 0.476186 -0.531492
v 1.062984 0.476186 -0.000000
v 0.920571 0.476186 0.531492
v 0.531492 0.476186 0.920571
v 0.000000 0.476186 1.062984
v -0.531492 0.476186 0.920571
v -0.920571 0.476186 0.531492
v -1.062984 0.476186 -0.000000
v -0.920571 0.476186 -0.531492
v -0.531492 0.476186 -0.920571
vn -0.2193 -0.4821 0.8482
vn -0.2347 -0.4214 0.8760
vn -0.2953 -0.4415 0.8473
vn -0.8442 -0.4821 0.2342
vn -0.8760 -0.4214 0.2347
vn -0.8814 -0.4415 0.1679
vn 0.8442 -0.4821 -0.2342
vn 0.8760 -0.4214 -0.2347
vn 0.8814 -0.4415 -0.1679
vn 0.2193 -0.4821 -0.8482
vn 0.2347 -0.4214 -0.8760
vn 0.2953 -0.4415 -0.8473
vn -0.8557 -0.4203 -0.3018
vn -0.8760 -0.4214 -0.2347
vn 0.2578 -0.4759 0.8409
vn 0.2347 -0.4214 0.8760
vn 0.1679 -0.4415 0.8814
vn -0.6249 -0.4821 -0.6140
vn -0.6413 -0.4214 -0.6413
vn -0.5901 -0.4203 -0.6892
vn 0.8557 -0.4203 0.3018
vn 0.8760 -0.4214 0.2347
vn 0.6437 -0.4759 0.5993
vn 0.6413 -0.4214 0.6413
vn 0.5901 -0.4203 0.6892
vn 0.8811 0.4098 -0.2361
vn 0.8575 0.4637 -0.2230
vn -0.2578 -0.4759 -0.8409
vn -0.2347 -0.4214 -0.8760
vn -0.1665 -0.4203 -0.8920
vn -0.5993 -0.4759 0.6437
vn -0.6413 -0.4214 0.6413
vn -0.6892 -0.4203 0.5901
vn -0.7054 0.0688 0.7054
vn -0.6751 -0.0410 0.7366
vn -0.6595 0.0260 0.7512
vn -0.7054 0.0688 -0.7054
vn -0.7366 -0.0410 -0.6751
vn -0.7547 0.0012 -0.6561
vn 0.2357 0.4637 -0.8541
vn 0.2361 0.4098 -0.8811
vn 0.1774 0.4278 -0.8863
vn 0.9702 0.0641 -0.2335
vn 0.9584 -0.0543 -0.2802
vn 0.9455 0.0012 -0.3255
vn -0.2829 0.0641 0.9570
vn -0.2032 -0.0207 0.9789
vn -0.1909 0.0012 0.9816
vn 0.9636 0.0688 0.2582
vn 0.9754 -0.0410 0.2164
vn 0.9816 0.0012 0.1909
vn -0.6450 0.4098 -0.6450
vn -0.6647 0.4457 -0.5996
vn -0.5968 0.4278 -0.6788
vn 0.5993 -0.4759 -0.6437
vn 0.6413 -0.4214 -0.6413
vn 0.6892 -0.4203 -0.5901
vn 0.8811 0.4098 0.2361
vn 0.8755 0.4457 0.1869
vn 0.8510 0.4583 0.2565
vn 0.2335 0.0641 0.9702
vn 0.3135 -0.0207 0.9494
vn 0.3208 0.0260 0.9468
vn 0.7054 0.0688 -0.7054
vn 0.7059 -0.0584 -0.7059
vn 0.6595 0.0260 -0.7512
vn -0.9455 0.0012 0.3255
vn -0.9754 -0.0410 0.2164
vn -0.9530 -0.0410 0.3003
vn 0.7054 0.0688 0.7054
vn 0.7462 -0.0207 0.6654
vn 0.7512 0.0260 0.6595
vn -0.2582 0.0688 -0.9636
vn -0.2584 -0.0584 -0.9643
vn -0.3208 0.0260 -0.9468
vn -0.9636 0.0688 -0.2582
vn -0.9789 -0.0207 -0.2032
vn -0.9816 0.0012 -0.1909
vn -0.2361 0.4098 0.8811
vn -0.2895 0.4278 0.8563
vn 0.2361 0.4098 0.8811
vn 0.1774 0.4278 0.8863
vn 0.6450 0.4098 -0.6450
vn 0.6001 0.4090 -0.6874
vn 0.6477 0.4583 -0.6087
vn 0.6450 0.4098 0.6450
vn 0.5996 0.4456 0.6648
vn -0.8811 0.4098 -0.2361
vn -0.8517 0.4456 -0.2759
vn -0.0000 1.0000 -0.0000
vn -0.6450 0.4098 0.6450
vn -0.5996 0.4457 0.6647
vn -0.6788 0.4278 0.5968
vn -0.8811 0.4098 0.2361
vn -0.8516 0.4457 0.2759
vn -0.8755 0.4456 0.1869
vn -0.0000 -1.0000 -0.0000
vn -0.2361 0.4098 -0.8811
vn -0.1869 0.4456 -0.8755
vn 0.2829 0.0641 -0.9570
vn 0.2366 -0.0543 -0.9701
vn 0.1909 0.0012 -0.9816
vn -0.8482 -0.4821 -0.2193
vn 0.8482 -0.4821 0.2193
vn 0.8563 0.4278 -0.2895
vn -0.7218 -0.0543 0.6899
vn -0.6899 -0.0543 -0.7218
vn 0.9800 0.0012 -0.1990
vn -0.2802 -0.0543 0.9584
vn 0.9494 -0.0207 0.3135
vn 0.2366 -0.0543 0.9701
vn 0.7462 -0.0207 -0.6654
vn -0.9702 0.0641 0.2335
vn 0.6751 -0.0410 0.7366
vn -0.2164 -0.0410 -0.9754
vn -0.9530 -0.0410 -0.3003
vn -0.2033 0.4583 0.8652
vn 0.2565 0.4583 0.8510
vn 0.6477 0.4583 0.6087
vn -0.8652 0.4583 -0.2033
vn -0.2953 0.4090 -0.8634
vn 0.3177 0.0012 -0.9482
vt 0.416678 0.186623
vt 0.500012 0.000000
vt 0.500012 0.186623
vt 0.250012 0.186623
vt 0.333345 0.000000
vt 0.333345 0.186623
vt 0.750012 0.186623
vt 0.833345 0.000000
vt 0.833345 0.186623
vt 0.916678 0.186623
vt 1.000012 0.000000
vt 1.000012 0.186623
vt 0.166678 0.000000
vt 0.250012 0.000000
vt 0.583345 0.000000
vt 0.583345 0.186623
vt 0.083345 0.186623
vt 0.166678 0.186623
vt 0.666678 0.000000
vt 0.750012 0.000000
vt 0.666678 0.186623
vt 0.750012 1.000000
vt 0.833345 0.808590
vt 0.833345 1.000000
vt 0.000012 0.186623
vt 0.083345 0.000000
vt 0.416678 0.000000
vt 0.333345 0.808590
vt 0.083345 0.808590
vt 1.000012 0.808590
vt 0.916678 1.000000
vt 0.916678 0.808590
vt 0.750012 0.808590
vt 0.416679 0.808590
vt 0.666678 0.808590
vt 0.166678 1.000000
vt 0.166678 0.808590
vt 0.916678 0.000000
vt 0.500012 0.808590
vt 0.250012 0.808590
vt 0.583345 0.808590
vt 0.000012 0.808590
vt 0.416678 1.000000
vt 0.500012 1.000000
vt 0.583345 1.000000
vt 0.666678 1.000000
vt 0.250012 1.000000
vt 0.348929 0.238443
vt 0.645140 0.238443
vt 0.645140 0.751496
vt 0.333345 1.000000
vt 0.792927 0.494651
vt 0.753285 0.642597
vt 0.644981 0.750901
vt 0.497035 0.790543
vt 0.349088 0.750901
vt 0.240784 0.642597
vt 0.201142 0.494651
vt 0.240784 0.346705
vt 0.349088 0.238400
vt 0.000012 1.000000
vt 0.083345 1.000000
vt 0.644981 0.238400
vt 0.000012 0.000000
vt 1.000012 1.000000
vt 0.753561 0.346864
vt 0.793246 0.494970
vt 0.753561 0.643075
vt 0.497035 0.791181
vt 0.348929 0.751496
vt 0.240508 0.643075
vt 0.200823 0.494970
vt 0.240508 0.346864
vt 0.497035 0.198758
vt 0.753285 0.346705
s 1
usemtl Material.001
f 44/1/1 13/2/2 43/3/3
f 46/4/4 17/5/5 45/6/6
f 40/7/7 5/8/8 39/9/9
f 38/10/10 1/11/11 37/12/12
f 46/4/13 21/13/14 19/14/14
f 43/3/15 11/15/16 42/16/17
f 48/17/18 21/13/19 47/18/20
f 40/7/21 9/19/22 7/20/22
f 42/16/23 9/19/24 41/21/25
f 8/22/26 28/23/27 6/24/26
f 37/25/28 23/26/29 48/17/30
f 45/6/31 15/27/32 44/1/33
f 44/1/34 32/28/35 45/6/36
f 47/18/37 26/29/38 48/17/39
f 34/30/40 4/31/41 27/32/42
f 39/9/43 35/33/44 40/7/45
f 43/3/46 31/34/47 44/1/48
f 40/7/49 36/35/50 41/21/51
f 22/36/52 26/29/53 25/37/54
f 39/9/55 3/38/56 38/10/57
f 8/22/58 36/35/59 35/33/60
f 42/16/61 30/39/62 43/3/63
f 38/10/64 28/23/65 39/9/66
f 46/4/67 32/28/68 33/40/69
f 41/21/70 29/41/71 42/16/72
f 48/17/73 34/42/74 37/25/75
f 46/4/76 25/37/77 47/18/78
f 16/43/79 30/39/80 14/44/79
f 14/44/81 29/41/82 12/45/81
f 4/31/83 28/23/84 27/32/85
f 12/45/86 36/35/87 10/46/86
f 22/36/88 33/40/89 20/47/88
f 16/48/90 12/49/90 4/50/90
f 16/43/91 32/28/92 31/34/93
f 18/51/94 33/40/95 32/28/96
f 7/52/97 9/53/97 11/54/97
f 11/54/97 13/55/97 15/56/97
f 15/56/97 17/57/97 19/58/97
f 19/58/97 21/59/97 23/60/97
f 2/61/98 26/29/99 24/62/98
f 3/63/97 7/52/97 15/56/97
f 37/12/100 27/32/101 38/10/102
f 44/1/1 15/27/2 13/2/2
f 46/4/4 19/14/5 17/5/5
f 40/7/7 7/20/8 5/8/8
f 38/10/10 3/38/11 1/11/11
f 46/4/13 47/18/103 21/13/14
f 43/3/15 13/2/16 11/15/16
f 48/17/18 23/26/19 21/13/19
f 40/7/21 41/21/104 9/19/22
f 42/16/23 11/15/24 9/19/24
f 8/22/26 35/33/105 28/23/27
f 37/25/28 1/64/29 23/26/29
f 45/6/31 17/5/32 15/27/32
f 44/1/34 31/34/106 32/28/35
f 47/18/37 25/37/107 26/29/38
f 34/30/40 2/65/41 4/31/41
f 39/9/43 28/23/108 35/33/44
f 43/3/46 30/39/109 31/34/47
f 40/7/49 35/33/110 36/35/50
f 22/36/52 24/62/52 26/29/53
f 39/9/55 5/8/56 3/38/56
f 8/22/58 10/46/58 36/35/59
f 42/16/61 29/41/111 30/39/62
f 38/10/64 27/32/112 28/23/65
f 46/4/67 45/6/113 32/28/68
f 41/21/70 36/35/114 29/41/71
f 48/17/73 26/29/115 34/42/74
f 46/4/76 33/40/116 25/37/77
f 16/43/79 31/34/117 30/39/80
f 14/44/81 30/39/118 29/41/82
f 4/31/83 6/24/83 28/23/84
f 12/45/86 29/41/119 36/35/87
f 22/36/88 25/37/120 33/40/89
f 12/49/90 10/66/90 4/50/90
f 10/66/90 8/67/90 4/50/90
f 8/67/90 6/68/90 4/50/90
f 4/50/90 2/69/90 24/70/90
f 24/70/90 22/71/90 4/50/90
f 22/71/90 20/72/90 4/50/90
f 20/72/90 18/73/90 16/48/90
f 16/48/90 14/74/90 12/49/90
f 20/72/90 16/48/90 4/50/90
f 16/43/91 18/51/91 32/28/92
f 18/51/94 20/47/94 33/40/95
f 2/61/98 34/42/121 26/29/99
f 23/60/97 1/74/97 3/63/97
f 3/63/97 5/75/97 7/52/97
f 7/52/97 11/54/97 15/56/97
f 15/56/97 19/58/97 23/60/97
f 23/60/97 3/63/97 15/56/97
f 37/12/100 34/30/122 27/32/101
